<?xml version="1.0" encoding="utf-8"?>
<!-- Generator: Adobe Illustrator 18.0.0, SVG Export Plug-In . SVG Version: 6.00 Build 0)  -->
<!DOCTYPE svg PUBLIC "-//W3C//DTD SVG 1.1//EN" "http://www.w3.org/Graphics/SVG/1.1/DTD/svg11.dtd">
<svg version="1.1" id="Layer_1" xmlns="http://www.w3.org/2000/svg" xmlns:xlink="http://www.w3.org/1999/xlink" x="0px" y="0px"
	 viewBox="0 0 64 64" enable-background="new 0 0 64 64" xml:space="preserve">
<g>
	<g id="XMLID_1_">
		<g>
			<g>
				<polygon fill="#9E6161" points="46,42 63,59 59,63 42,46 				"/>
			</g>
			<g>
				<path fill="#ACB3C6" d="M46,42l-4,4l-3.9-3.9c1.5-1.2,2.8-2.5,4-4L46,42z"/>
			</g>
			<g>
				<path fill="#FFFFFF" d="M47,24c0,5.3-1.8,10.2-4.9,14.1L42,38l-4,4l0.1,0.1c-3.9,3-8.8,4.9-14.1,4.9C11.3,47,1,36.7,1,24
					S11.3,1,24,1S47,11.3,47,24z M42,24c0-9.9-8.1-18-18-18C14.1,6,6,14.1,6,24c0,9.9,8.1,18,18,18C33.9,42,42,33.9,42,24z"/>
			</g>
			<g>
				<path fill="#FFFFFF" d="M42,38l0.1,0.1c-1.2,1.5-2.5,2.8-4,4L38,42L42,38z"/>
			</g>
			<g>
				<path fill="#69CDE8" d="M24,6c9.9,0,18,8.1,18,18c0,9.9-8.1,18-18,18c-9.9,0-18-8.1-18-18C6,14.1,14.1,6,24,6z"/>
			</g>
		</g>
		<g>
			<g>
				<path fill="#FFFFFF" d="M12,24c-0.6,0-1-0.4-1-1c0-5.5,6.5-12,12-12c0.6,0,1,0.4,1,1s-0.4,1-1,1c-4.4,0-10,5.6-10,10
					C13,23.5,12.6,24,12,24z"/>
			</g>
			<g>
				<path fill="#2C2C3D" d="M47.4,42L47.4,42l-0.6-0.6l-0.1-0.1l0,0L43.4,38c3-4.1,4.6-8.9,4.6-14C48,10.8,37.2,0,24,0S0,10.8,0,24
					c0,13.2,10.8,24,24,24c5.1,0,9.9-1.6,14-4.6l3.3,3.3l0,0L59,64.4l5.4-5.4L47.4,42z M42.2,39.6l2.4,2.4L42,44.6l-2.4-2.4
					C40.5,41.4,41.4,40.5,42.2,39.6z M2,24C2,11.9,11.9,2,24,2s22,9.9,22,22c0,5-1.6,9.6-4.7,13.5c-1.1,1.4-2.4,2.7-3.8,3.8
					c-3.9,3-8.6,4.7-13.5,4.7C11.9,46,2,36.1,2,24z M43.4,46l2.6-2.6L61.6,59L59,61.6L43.4,46z"/>
				<path fill="#2C2C3D" d="M24,5C13.5,5,5,13.5,5,24c0,10.5,8.5,19,19,19s19-8.5,19-19C43,13.5,34.5,5,24,5z M24,41
					c-9.4,0-17-7.6-17-17S14.6,7,24,7s17,7.6,17,17S33.4,41,24,41z"/>
			</g>
		</g>
	</g>
</g>
</svg>
